<svg xmlns="http://www.w3.org/2000/svg" width="14" height="14" fill="none" viewBox="0 0 14 14"><path stroke="#000" stroke-linecap="round" stroke-linejoin="round" stroke-width="1.25" d="M7 11C5.46973 11 4.1268 11.1873 3.31522 11.3327C2.94367 11.3992 2.60079 11.0563 2.66733 10.6848C2.81266 9.8732 3 8.53027 3 7C3 5.8387 2.89211 4.78529 2.77656 3.99011C2.73589 3.71017 3.19546 3.51715 3.36119 3.7464C4.09612 4.76304 5.23301 6.23301 6.5 7.5C7.76699 8.76699 9.23696 9.90388 10.2536 10.6388C10.4828 10.8045 10.2898 11.2641 10.0099 11.2234C9.21472 11.1079 8.1613 11 7 11Z"/><path stroke="#000" stroke-linecap="round" stroke-opacity=".3" stroke-width="1.25" d="M12.365 3.8478L10.3381 1.82088"/><path stroke="#000" stroke-linecap="round" stroke-opacity=".6" stroke-width="1.25" d="M11.3516 7.36803L6.64062 2.64155"/><rect width="3.585" height="2.729" x="2.723" y="8.738" fill="#000" rx=".5" transform="rotate(45 2.72266 8.73828)"/></svg>