<svg xmlns="http://www.w3.org/2000/svg" width="14" height="16" fill="none" viewBox="0 0 14 16"><path stroke="#000" stroke-width="1.25" d="M10 8.94203V11C7.38649 11 6.61351 11 4 11V10.6812L10 5.31884V5H4V7.08696"/><circle cx=".5" cy="8" r=".5" fill="#000"/><circle cx="1.5" cy="5.828" r=".5" fill="#000" fill-opacity=".75"/><circle cx="1.5" cy="10.172" r=".5" fill="#000" fill-opacity=".75"/><circle cx="13.5" cy="8.016" r=".5" fill="#000"/><circle cx="12.5" cy="5.844" r=".5" fill="#000" fill-opacity=".75"/><circle cx="12.5" cy="10.188" r=".5" fill="#000" fill-opacity=".75"/><circle cx="6.992" cy="1.484" r=".5" fill="#000"/><circle cx="4.5" cy="2.5" r=".5" fill="#000" fill-opacity=".75"/><circle cx=".5" cy="12.016" r=".5" fill="#000"/><circle cx=".5" cy="3.984" r=".5" fill="#000"/><circle cx="13.5" cy="12.016" r=".5" fill="#000"/><circle cx="13.5" cy="3.984" r=".5" fill="#000"/><circle cx="2.5" cy="14.516" r=".5" fill="#000"/><circle cx="2.484" cy="1.484" r=".5" fill="#000"/><circle cx="11.5" cy="14.516" r=".5" fill="#000"/><circle cx="11.5" cy="1.484" r=".5" fill="#000"/><circle cx="9.496" cy="2.484" r=".5" fill="#000" fill-opacity=".75"/><circle cx="6.992" cy="14.5" r=".5" fill="#000"/><circle cx="4.504" cy="13.516" r=".5" fill="#000" fill-opacity=".75"/><circle cx="9.496" cy="13.5" r=".5" fill="#000" fill-opacity=".75"/></svg>